# xmcd CD database file
# Copyright (C) 1997 Ti Kan
# 
# Track frame offsets:
#     150
#     14962
#     27562
#     40257
#     52522
#     62867
#     75507
#     92697
#     104862
#     117357
#     129567
#     148252
#     160317
#     180277
# 
# Disc length: 2641 seconds
# 
# Revision: 1
# Processed by: cddbd v1.4b41PL1 Copyright (c) Steve Scherf et al.
# Submitted via: DiscPlay 4.0.4
# 
DISCID=c20a4f0e
DTITLE=Lou Rawls - For You My Love
DYEAR=1900
DGENRE=
TTITLE0=For You My Love
TTITLE1=If I Had My Life to Live Over
TTITLE2=Nobody But Me
TTITLE3=Whispering Grass
TTITLE4=Gee Baby, Ain't I Good To You
TTITLE5=If It's  The Last Thing I Do
TTITLE6=Blues For The Weepers
TTITLE7=That's Your Red Wagon
TTITLE8=Just Squeeze Me (But don't tease me)
TTITLE9=It's You
TTITLE10=I Love You Yes I Do
TTITLE11=I Wonder
TTITLE12=Wee Baby Blues
TTITLE13=I Wonder Where Our Love Has Gone
EXTD=
EXTT0=
EXTT1=
EXTT2=
EXTT3=
EXTT4=
EXTT5=
EXTT6=
EXTT7=
EXTT8=
EXTT9=
EXTT10=
EXTT11=
EXTT12=
EXTT13=
PLAYORDER=
